<svg height="128" width="128" xmlns="http://www.w3.org/2000/svg"><g stroke-width="4"><path d="M32 96c-2.215 0-4 1.984-4 4.444v11.112c0 2.46 1.785 4.444 4 4.444h64c2.217 0 4-1.984 4-4.444V100.44c0-2.46-1.783-4.444-4-4.444z" fill="#5e5c64"/><path d="M32 92c-2.215 0-4 1.984-4 4.444v11.112c0 2.46 1.785 4.444 4 4.444h64c2.217 0 4-1.984 4-4.444V96.44c0-2.46-1.783-4.444-4-4.444z" fill="#9a9996"/><path d="M12 20c-2.215 0-4 1.828-4 4.104v71.792A4.04 4.04 0 0 0 12 100h104c2.217 0 4-1.832 4-4.104V24.104A4.04 4.04 0 0 0 116 20z" fill="#5e5c64"/><path d="M12 16c-2.215 0-4 1.784-4 4v72c0 2.216 1.785 4 4 4h104c2.217 0 4-1.784 4-4V20c0-2.216-1.783-4-4-4z" fill="#9a9996"/><path d="M12 20h104v72H12z" fill="#3d3846"/><path d="M16 24h96v64H16z" fill="#241f31"/><path d="M16 24h72L72 88H16z" fill="#fff" opacity=".2"/></g></svg>