<svg height="128" width="128" xmlns="http://www.w3.org/2000/svg"><g stroke-width="4"><path d="M8 24h112v88H8z" fill="#f6f5f4"/><g fill="#c0bfbc"><rect height="12" ry="4" width="112" x="8" y="16"/><path d="M8 24h112v4H8z"/></g></g><g fill="#9a9996"><path d="M8 28h4v84H8z"/><path d="M8 108h112v4H8z"/><path d="M116 28h4v84h-4z"/><path d="M8 28h112v4H8z"/></g><g fill="#3d3846" transform="scale(4)"><rect height="1" ry=".5" width="1" x="28" y="5"/><rect height="1" ry=".5" width="1" x="26" y="5"/><rect height="1" ry=".5" width="1" x="24" y="5"/><path d="M8 10c-.554 0-1 .446-1 1v10c0 .554.446 1 1 1h16c.554 0 1-.446 1-1V11c0-.554-.446-1-1-1zm0 1h16v10H8zm3 12v1c0 .554.446 1 1 1h8c.554 0 1-.446 1-1v-1z"/></g></svg>