<svg height="128" width="128" xmlns="http://www.w3.org/2000/svg"><linearGradient id="a" gradientUnits="userSpaceOnUse" x1="8" x2="120" y1="104" y2="104"><stop offset="0" stop-color="#5e5c64"/><stop offset=".036" stop-color="#9a9996"/><stop offset=".071" stop-color="#5e5c64"/><stop offset=".929" stop-color="#5e5c64"/><stop offset=".964" stop-color="#9a9996"/><stop offset="1" stop-color="#5e5c64"/></linearGradient><g fill="#5e5c64" stroke-width="4"><rect height="24" ry="4" width="112" x="8" y="24"/><rect height="24" ry="4" width="112" x="8" y="48"/><rect height="24" ry="4.236" width="112" x="8" y="72"/></g><rect fill="url(#a)" height="20" ry="4" width="112" x="8" y="92"/><g fill="#9a9996" stroke-width="4"><rect height="20" ry="4" width="112" x="8" y="12"/><rect height="20" ry="4" width="112" x="8" y="36"/><rect height="20" ry="4" width="112" x="8" y="60"/><rect height="20" ry="4" width="112" x="8" y="84"/></g><path d="M56 16h60v12H56zm0 24h60v12H56zm0 24h60v12H56zm0 24h60v12H56z" fill="#3d3846"/><g fill="#5e5c64" transform="scale(4)"><path d="M14 5h15v2H14zm0 6h15v2H14zm0 6h15v2H14zm0 6h15v2H14z"/><rect height="2" ry=".5" width="1" x="4" y="4"/><rect height="2" ry=".5" width="1" x="6" y="4"/><rect height="2" ry=".5" width="1" x="4" y="10"/><rect height="2" ry=".5" width="1" x="6" y="10"/><rect height="2" ry=".5" width="1" x="4" y="16"/><rect height="2" ry=".5" width="1" x="6" y="16"/><rect height="2" ry=".5" width="1" x="4" y="22"/><rect height="2" ry=".5" width="1" x="6" y="22"/></g><g stroke-width="4"><rect fill="#e01b24" height="4" ry="2" width="4" x="24" y="44"/><rect fill="#e01b24" height="4" ry="2" width="4" x="16" y="68"/><g fill="#33d17a"><rect height="4" ry="2" width="4" x="24" y="20"/><rect height="4" ry="2" width="4" x="16" y="44"/><rect height="4" ry="2" width="4" x="24" y="92"/></g><path d="M60 44h4v8h-4zm8 0h4v8h-4zm8 0h4v8h-4zm8 0h4v8h-4zm8 0h4v8h-4zm8 0h4v8h-4zm8 0h4v8h-4zM60 20h4v8h-4zm8 0h4v8h-4zm8 0h4v8h-4zm8 0h4v8h-4zm8 0h4v8h-4zm8 0h4v8h-4zm8 0h4v8h-4zM60 68h4v8h-4zm8 0h4v8h-4zm8 0h4v8h-4zm8 0h4v8h-4zm8 0h4v8h-4zm8 0h4v8h-4zm8 0h4v8h-4zM60 92h4v8h-4zm8 0h4v8h-4zm8 0h4v8h-4zm8 0h4v8h-4zm8 0h4v8h-4zm8 0h4v8h-4zm8 0h4v8h-4z" fill="#3d3846"/><path d="M60 40h4v4h-4zm8 0h4v4h-4zm8 0h4v4h-4zm8 0h4v4h-4zm8 0h4v4h-4zm8 0h4v4h-4zm8 0h4v4h-4zM60 16h4v4h-4zm8 0h4v4h-4zm8 0h4v4h-4zm8 0h4v4h-4zm8 0h4v4h-4zm8 0h4v4h-4zm8 0h4v4h-4zM60 64h4v4h-4zm8 0h4v4h-4zm8 0h4v4h-4zm8 0h4v4h-4zm8 0h4v4h-4zm8 0h4v4h-4zm8 0h4v4h-4zM60 88h4v4h-4zm8 0h4v4h-4zm8 0h4v4h-4zm8 0h4v4h-4zm8 0h4v4h-4zm8 0h4v4h-4zm8 0h4v4h-4z" fill="#241f31"/></g><path d="M63.879 25.998a4 4 0 0 0-3.55 1.94l-9.64 16.07-18.261 4.201a4 4 0 0 0-2.12 6.524L42.61 68.867l-1.647 18.666a4 4 0 0 0 5.55 4.032l17.244-7.334 17.244 7.334a4 4 0 0 0 5.55-4.032l-1.648-18.666 12.304-14.134a4 4 0 0 0-2.12-6.524l-18.26-4.201-9.64-16.07a4 4 0 0 0-3.31-1.94z" fill="#e5a50a"/><g fill="#f6d32d"><g stroke-width="4"><rect height="4" ry="2" width="4" x="16" y="20"/><rect height="4" ry="2" width="4" x="24" y="68"/><rect height="4" ry="2" width="4" x="16" y="92"/></g><path d="M64 24a4 4 0 0 0-3.55 1.94l-9.64 16.07-18.261 4.2a4 4 0 0 0-2.12 6.525L42.732 66.87l-1.647 18.666a4 4 0 0 0 5.55 4.032l17.244-7.334 17.244 7.334a4 4 0 0 0 5.55-4.032L85.025 66.87 97.33 52.735a4 4 0 0 0-2.12-6.524L76.95 42.01l-9.64-16.07A4 4 0 0 0 64 24z"/></g></svg>