<svg height="128" width="128" xmlns="http://www.w3.org/2000/svg"><g stroke-width="4"><path d="M8 24h112v88H8z" fill="#f6f5f4"/><g fill="#c0bfbc"><rect height="12" ry="4" width="112" x="8" y="16"/><path d="M8 24h112v4H8z"/></g></g><g fill="#9a9996"><path d="M8 28h4v84H8z"/><path d="M8 108h112v4H8z"/><path d="M116 28h4v84h-4z"/><path d="M8 28h112v4H8z"/></g><g stroke-width="4"><g fill="#3d3846"><rect height="4" ry="2" width="4" x="112" y="20"/><rect height="4" ry="2" width="4" x="104" y="20"/><rect height="4" ry="2" width="4" x="96" y="20"/></g><path d="M12 96h104v12H12z" fill="#241f31"/><path d="M12 96h12v12H12zm88 4h12v4h-12zm-8 0h4v4h-4zm-8 0h4v4h-4zm-56 0h4v4h-4zm8 0h24v4H36z" fill="#fff"/><path d="M20 36h8v8h-8zm-4 12h16v4H16zm4 8h8v8h-8zm-4 12h16v4H16z" fill="#3d3846"/></g></svg>