<svg height="128" width="128" xmlns="http://www.w3.org/2000/svg" xmlns:xlink="http://www.w3.org/1999/xlink"><linearGradient id="b"><stop offset="0" stop-color="#f6f5f4"/><stop offset="1" stop-color="#e7e6e4"/></linearGradient><linearGradient id="a"><stop offset="0" stop-color="#e01b24"/><stop offset="1" stop-color="#c01c28"/></linearGradient><linearGradient id="c" gradientUnits="userSpaceOnUse" x1="64" x2="64" xlink:href="#a" y1="96" y2="120"/><linearGradient id="g" gradientUnits="userSpaceOnUse" x1="64" x2="64" xlink:href="#a" y1="8" y2="32"/><linearGradient id="f" gradientUnits="userSpaceOnUse" x1="92" x2="92" xlink:href="#b" y1="12" y2="52"/><linearGradient id="d" gradientUnits="userSpaceOnUse" x1="44" x2="44" xlink:href="#b" y1="80" y2="112"/><linearGradient id="e" gradientUnits="userSpaceOnUse" x1="64" x2="64" xlink:href="#a" y1="52" y2="80"/><g stroke-width="4"><path d="M51.76 93.552l-9.176 22.152a56 56 0 0 0 42.844.036l-9.184-22.176a32 32 0 0 1-24.484-.012z" fill="url(#c)"/><path d="M34.46 76.204l-22.148 9.18a56 56 0 0 0 30.276 30.32l9.176-22.172A32 32 0 0 1 34.46 76.204zm59.108.056A32 32 0 0 1 76.24 93.564l9.18 22.148a56 56 0 0 0 30.32-30.264z" fill="url(#d)"/><path d="M12.328 42.548a56 56 0 0 0-.04 42.844l22.172-9.188a32 32 0 0 1 .016-24.484zm103.452.056l-22.172 9.18a32 32 0 0 1-.016 24.48l22.148 9.184a56 56 0 0 0 .04-42.844z" fill="url(#e)"/><path d="M42.648 12.272a56 56 0 0 0-30.32 30.276l22.172 9.18A32 32 0 0 1 51.82 34.42zm42.836.016L76.296 34.46a32 32 0 0 1 17.312 17.32l22.148-9.172a56 56 0 0 0-30.272-30.32z" fill="url(#f)"/><path d="M76.308 34.436l9.176-22.152a56 56 0 0 0-42.844-.036l9.184 22.176a32 32 0 0 1 24.484.012z" fill="url(#g)"/></g></svg>