<svg height="128" width="128" xmlns="http://www.w3.org/2000/svg"><linearGradient id="a" gradientUnits="userSpaceOnUse" x1="24" x2="104" y1="64" y2="64"><stop offset="0" stop-color="#5e5c64"/><stop offset=".05" stop-color="#9a9996"/><stop offset=".1" stop-color="#5e5c64"/><stop offset=".9" stop-color="#5e5c64"/><stop offset=".95" stop-color="#9a9996"/><stop offset="1" stop-color="#5e5c64"/></linearGradient><linearGradient id="b" gradientUnits="userSpaceOnUse" x1="64" x2="64" y1="12" y2="96"><stop offset="0" stop-color="#c0bfbc"/><stop offset="1" stop-color="#deddda"/></linearGradient><g stroke-width="4"><path d="M12 12v12c2.216 0 4 1.784 4 4s-1.784 4-4 4v36c2.216 0 4 1.784 4 4s-1.784 4-4 4v8c2.216 0 4 1.784 4 4s-1.784 4-4 4v24h104V92c-2.216 0-4-1.784-4-4s1.784-4 4-4v-8c-2.216 0-4-1.784-4-4s1.784-4 4-4V32c-2.216 0-4-1.784-4-4s1.784-4 4-4V12z" fill="#26a269"/><path d="M12 12v8c2.216 0 4 1.784 4 4s-1.784 4-4 4v36c2.216 0 4 1.784 4 4s-1.784 4-4 4v8c2.216 0 4 1.784 4 4s-1.784 4-4 4v24h104V88c-2.216 0-4-1.784-4-4s1.784-4 4-4v-8c-2.216 0-4-1.784-4-4s1.784-4 4-4V28c-2.216 0-4-1.784-4-4s1.784-4 4-4v-8z" fill="#2ec27e"/><rect fill="#f6f5f4" height="84" ry="4" width="88" x="20" y="20"/><rect fill="url(#a)" height="80" ry="8" width="80" x="24" y="20"/><rect fill="url(#b)" height="76" ry="8" width="80" x="24" y="16"/><path d="M12 104l8 8h-8z" fill="#f6d32d"/><path d="M44 24h40v20H44zm-8 28h56v4H36zm0 8h56v4H36zm0 8h56v4H36zm0 8h56v4H36z" fill="#9a9996"/></g></svg>