<svg height="128" width="128" xmlns="http://www.w3.org/2000/svg"><g stroke-width="4"><path d="M64 8A56 56 0 0 0 8 64a56 56 0 0 0 56 56 56 56 0 0 0 56-56A56 56 0 0 0 64 8zm0 4a52 52 0 0 1 52 52 52 52 0 0 1-52 52 52 52 0 0 1-52-52 52 52 0 0 1 52-52z" fill="#241f31"/><circle cx="64" cy="64" fill="#f6f5f4" r="52"/><g fill="#3d3846"><rect height="24" ry="12" width="24" x="20" y="52"/><rect height="24" ry="12" width="24" x="52" y="52"/><rect height="24" ry="12" width="24" x="84" y="52"/></g></g></svg>