<svg height="128" width="128" xmlns="http://www.w3.org/2000/svg"><linearGradient id="a" gradientUnits="userSpaceOnUse" x1="8" x2="120" y1="104" y2="104"><stop offset="0" stop-color="#5e5c64"/><stop offset=".036" stop-color="#9a9996"/><stop offset=".071" stop-color="#5e5c64"/><stop offset=".929" stop-color="#5e5c64"/><stop offset=".964" stop-color="#9a9996"/><stop offset="1" stop-color="#5e5c64"/></linearGradient><g fill="#5e5c64" stroke-width="4"><rect height="24" ry="4" width="112" x="8" y="24"/><rect height="24" ry="4" width="112" x="8" y="48"/><rect height="24" ry="4.236" width="112" x="8" y="72"/></g><rect fill="url(#a)" height="20" ry="4" width="112" x="8" y="92"/><g fill="#9a9996" stroke-width="4"><rect height="20" ry="4" width="112" x="8" y="12"/><rect height="20" ry="4" width="112" x="8" y="36"/><rect height="20" ry="4" width="112" x="8" y="60"/><rect height="20" ry="4" width="112" x="8" y="84"/></g><path d="M56 16h60v12H56zm0 24h60v12H56zm0 24h60v12H56zm0 24h60v12H56z" fill="#3d3846"/><g fill="#5e5c64" transform="scale(4)"><path d="M14 5h15v2H14zm0 6h15v2H14zm0 6h15v2H14zm0 6h15v2H14z"/><rect height="2" ry=".5" width="1" x="4" y="4"/><rect height="2" ry=".5" width="1" x="6" y="4"/><rect height="2" ry=".5" width="1" x="4" y="10"/><rect height="2" ry=".5" width="1" x="6" y="10"/><rect height="2" ry=".5" width="1" x="4" y="16"/><rect height="2" ry=".5" width="1" x="6" y="16"/><rect height="2" ry=".5" width="1" x="4" y="22"/><rect height="2" ry=".5" width="1" x="6" y="22"/></g><g stroke-width="4"><rect fill="#e01b24" height="4" ry="2" width="4" x="24" y="44"/><rect fill="#e01b24" height="4" ry="2" width="4" x="16" y="68"/><g fill="#f6d32d"><rect height="4" ry="2" width="4" x="16" y="20"/><rect height="4" ry="2" width="4" x="24" y="68"/><rect height="4" ry="2" width="4" x="16" y="92"/></g><g fill="#33d17a"><rect height="4" ry="2" width="4" x="24" y="20"/><rect height="4" ry="2" width="4" x="16" y="44"/><rect height="4" ry="2" width="4" x="24" y="92"/></g><path d="M60 44h4v8h-4zm8 0h4v8h-4zm8 0h4v8h-4zm8 0h4v8h-4zm8 0h4v8h-4zm8 0h4v8h-4zm8 0h4v8h-4zM60 20h4v8h-4zm8 0h4v8h-4zm8 0h4v8h-4zm8 0h4v8h-4zm8 0h4v8h-4zm8 0h4v8h-4zm8 0h4v8h-4zM60 68h4v8h-4zm8 0h4v8h-4zm8 0h4v8h-4zm8 0h4v8h-4zm8 0h4v8h-4zm8 0h4v8h-4zm8 0h4v8h-4zM60 92h4v8h-4zm8 0h4v8h-4zm8 0h4v8h-4zm8 0h4v8h-4zm8 0h4v8h-4zm8 0h4v8h-4zm8 0h4v8h-4z" fill="#3d3846"/><path d="M60 40h4v4h-4zm8 0h4v4h-4zm8 0h4v4h-4zm8 0h4v4h-4zm8 0h4v4h-4zm8 0h4v4h-4zm8 0h4v4h-4zM60 16h4v4h-4zm8 0h4v4h-4zm8 0h4v4h-4zm8 0h4v4h-4zm8 0h4v4h-4zm8 0h4v4h-4zm8 0h4v4h-4zM60 64h4v4h-4zm8 0h4v4h-4zm8 0h4v4h-4zm8 0h4v4h-4zm8 0h4v4h-4zm8 0h4v4h-4zm8 0h4v4h-4zM60 88h4v4h-4zm8 0h4v4h-4zm8 0h4v4h-4zm8 0h4v4h-4zm8 0h4v4h-4zm8 0h4v4h-4zm8 0h4v4h-4z" fill="#241f31"/></g></svg>