<svg height="128" width="128" xmlns="http://www.w3.org/2000/svg"><g stroke-width="4"><path d="M16 20L4 40l12 4zm96 0l12 20-12 4zm-96 0h96v88H16z" fill="#cdab8f"/><path d="M16 20h96v80H16z" fill="#dec7b4"/><path d="M44 20h68v80H44z" fill="#73ba25"/><path d="M44 100h68v8H44z" fill="#54881b"/><path d="M52 80v28h24V80l-12 8z" fill="#63452c" opacity=".2"/><path d="M16 20l-4 32h52V20z" fill="#dec7b4"/><path d="M44 52h72l-4-32H44z" fill="#73ba25"/><path d="M12 52h52v4H12z" fill="#cdab8f"/><path d="M44 52h72v4H44z" fill="#54881b"/></g></svg>