<svg viewBox="0 0 32 32" xmlns="http://www.w3.org/2000/svg"><linearGradient id="a" gradientUnits="userSpaceOnUse" x1="-50.45" x2="-50.45" y1="-.041" y2="-22.041"><stop offset="0" stop-color="#1b887e"/><stop offset=".071" stop-color="#1b887e"/><stop offset=".214" stop-color="#25b9ab"/><stop offset=".464" stop-color="#1b887e"/><stop offset="1" stop-color="#1b887e"/></linearGradient><g stroke-width=".55" transform="matrix(0 -1.2727 -1.2727 0 1.948 -34.208)"><rect fill="url(#a)" height="22" rx="11" width="22" x="-50.45" y="-22.041"/><rect fill="#25b9ab" height="22" rx="11" width="22" x="-49.664" y="-22.041"/></g><path d="M8.806 6.267l.888 2.97 1.423 1.699a4.015 4.015 0 0 0-1.366.512c-.503.442-.782.997-1.002 1.581l-1.6 1.244c-.085-.073-.148-.013-.217.015-.244.144-.511.268-.654.497-.26.673.18 1.034.46 1.451.179.194.58.44.964.466l3.169-1.55 1.73-.322c-.303 2.107-.275 4.4-.335 6.645l-.915 1.537-.219.175 5.494-.424 2.138.98.668-.292 1.366-.074-.29-.38 1.03-.044-.056.541.915-.526h.407l.247.219.45-.321.698-.03c-.402-2.27-.657-4.565-.887-6.865-.045-.593-.092-1.182-.247-1.581a5.674 5.674 0 0 0-1.409-1.888c-.708-.585-1.439-1.116-2.253-1.435-.722-.273-1.444-.083-2.166.06a12.03 12.03 0 0 0-2.34.804c.15-.351.404-.687.732-.86.448-.234.832-.34 1.303-.471.422-.158.689-.416.974-.66.785-.944 1.46-1.919 2.121-2.898-1.192.274-2.384.738-3.576 1.186-.755.282-1.432.642-2.005 1.2l-1.22 1.215c-.275.211-.413-.006-.568-.175l-.9-1.348zM15 18l.996.34.889 1.628-.858 1.59-.822.47s-.581-3.672-.55-3.688c.03-.015.345-.34.345-.34zm5.54.818l.743 1.453.16 1.331L20.4 22.86s-.72-.77-.699-.812c.021-.044.56-3.165.56-3.165z" fill="#173f4f"/><path d="M9.47 7.425l.719 1.688 1.758 2.008c-.57.09-1.077.243-1.555.426-.27.13-.528.27-.672.555l-.438.776c-.141.285-.44.513-.733.744l-1.2.937c.239.116.453.268.65.448-.212-.117-.418-.24-.665-.305-.172-.027-.342-.025-.499.1-.141.117-.125.315-.096.5.054.286.293.54.565.732.253.113.486.055.71-.077.194-.18.273-.496.249-.928.14-.026.109.807.134.712.013-.051 2.057-1.073 2.598-1.2.552-.142 1.413-.188 2.036-.382.387-.124.67-.418.91-.787l-.193.41a1.103 1.103 0 0 1-.634.48l-.347 3.692-.007 3.57-.604.9.411-.014.438-.579-.322.693s2.107-.141 2.107-.126-.65-4.27-.65-4.27.704-.787.719-.798c.015-.012 2.575.864 2.575.864l-.394-.465-.324-.179.393.13s.913 1.106.917 1.122c.004.015.163-.199.163-.199l-.956 3.88 1.27.433-.04-.593.304.736.467.031-.316-.767.55.668.302-.06-.544-.783.635-3.78-.732-.578-.567-.76.537.547-.582-.829-.046-1.095.204.943.22-.775-.114.905.423.928.846.63-.016.145.666-.244.43-.972.037-.602.062.61s-.37.896-.37.927c0 .03.483-.457.483-.457l-.53.624.847 1.528.287 1.666.211-.151-.045.06-.68.888.446-.097.173-.274-.076.334.159.008-.037.365.332-.297.248.077.077-.443v.45l.233-.046.113.38.166-.479.325-.015c-.31-2.352-.72-4.704-.83-7.056-.012-.448-.388-1.24-.793-1.758-.473-.545-1.439-1.71-2.81-2.037-.748-.089-1.51.032-2.34.303-.734.215-1.492.477-2.316.872.194.318.451.63.889 1 .137.134.384.171.627.152-.168.06-.341.11-.522.015-.295-.2-.538-.45-.77-.714a2.761 2.761 0 0 1-.355-.571c-.14-.318.025-.722.295-1.156.245-.301.515-.595 1.064-.806.494-.197.99-.394 1.459-.654.53-.344 1.376-1.44 1.826-2.206-1.226.45-2.451.81-3.67 1.528-.456.313-.903.798-1.359 1.3-.194.22-.404.426-.68.572-.379.203-.64.01-.815-.145a5.823 5.823 0 0 1-.717-.957c-.27-.37-.553-.741-.967-1.111-.476-.442-.905-.952-1.337-1.415zm7.756 1.213l-1.08 1.311.733-.254-1.475.723zm-5.123 2.737c.095-.002.19 0 .282.01-.597.046-.87.149-1.388.415.19-.145.297-.253.639-.37.15-.033.309-.052.467-.055zm.166.824c.295.005.495.135.495.135-.654-.176-1.013-.03-1.293.398-.033-.027.186-.399.476-.487.116-.035.224-.048.322-.046zm-.05.22a.76.76 0 0 1 .185.015c.122.043.178.134.238.22-.127-.112-.258-.2-.417-.159.18.02.247.133.273.281.022.199-.149.316-.263.333s-.26-.012-.344-.135c-.024-.05-.088-.234.014-.365a1 1 0 0 0-.302.192c.077-.112.171-.2.313-.294a.666.666 0 0 1 .303-.089zm-4.826 2.597c.153.181.302.355.375.595.01.222-.088.217-.184.216-.08-.001-.232-.092-.183-.166a.586.586 0 0 0 .058-.31zm-.56.055c.12.126.238.21.26.386.009.042.017.146-.066.13-.242-.229-.096-.204-.193-.516z" fill="#fff"/></svg>