<svg xmlns="http://www.w3.org/2000/svg" viewBox="0 0 32 32"><path fill="#f6f5f4" d="M2 6h28v22H2z"/><rect fill="#c0bfbc" ry="1" height="3" width="28" y="4" x="2"/><path fill="#c0bfbc" d="M2 6h28v1H2z"/><path fill="#9a9996" d="M2 7h1v21H2z"/><path fill="#9a9996" d="M2 27h28v1H2z"/><path fill="#9a9996" d="M29 7h1v21h-1z"/><path fill="#9a9996" d="M2 7h28v1H2z"/><rect fill="#3d3846" ry=".5" height="1" width="1" y="5" x="28"/><rect fill="#3d3846" ry=".5" height="1" width="1" y="5" x="26"/><rect fill="#3d3846" ry=".5" height="1" width="1" y="5" x="24"/><path fill="#3d3846" d="M8 10c-.554 0-1 .446-1 1v10c0 .554.446 1 1 1h16c.554 0 1-.446 1-1V11c0-.554-.446-1-1-1zm0 1h16v10H8zm3 12v1c0 .554.446 1 1 1h8c.554 0 1-.446 1-1v-1z"/><path fill="#f6f5f4" d="M20 15h8v10h-8z"/><path d="M23 16v5" fill="none" stroke="#3d3846" stroke-width="2" stroke-linejoin="round"/><path fill="#f6f5f4" d="M17 20h12v5H17z"/><path d="M21 19l2 2 2-2" fill="none" stroke="#3d3846" stroke-width="2" stroke-linecap="round"/><path d="M19 22v2h8v-2" fill="none" stroke="#3d3846" stroke-width="2" stroke-linejoin="round"/></svg>