<?xml version="1.0" encoding="UTF-8" standalone="no"?>
<svg
   xmlns:dc="http://purl.org/dc/elements/1.1/"
   xmlns:cc="http://creativecommons.org/ns#"
   xmlns:rdf="http://www.w3.org/1999/02/22-rdf-syntax-ns#"
   xmlns:svg="http://www.w3.org/2000/svg"
   xmlns="http://www.w3.org/2000/svg"
   id="svg28"
   viewBox="0 0 32 32"
   version="1.1">
  <defs
     id="defs32" />
  <metadata
     id="metadata2">
    <rdf:RDF>
      <cc:Work
         rdf:about="">
        <dc:format>image/svg+xml</dc:format>
        <dc:type
           rdf:resource="http://purl.org/dc/dcmitype/StillImage" />
        <dc:creator>
          <cc:Agent>
            <dc:title>Jakub Steiner</dc:title>
          </cc:Agent>
        </dc:creator>
        <dc:source>http://jimmac.musichall.cz</dc:source>
        <cc:license
           rdf:resource="http://creativecommons.org/licenses/by-sa/2.0/" />
        <dc:title></dc:title>
        <dc:subject>
          <rdf:Bag>
            <rdf:li>apparmor</rdf:li>
            <rdf:li>novell</rdf:li>
          </rdf:Bag>
        </dc:subject>
      </cc:Work>
      <cc:License
         rdf:about="http://creativecommons.org/licenses/by-sa/2.0/">
        <cc:permits
           rdf:resource="http://web.resource.org/cc/Reproduction" />
        <cc:permits
           rdf:resource="http://web.resource.org/cc/Distribution" />
        <cc:requires
           rdf:resource="http://web.resource.org/cc/Notice" />
        <cc:requires
           rdf:resource="http://web.resource.org/cc/Attribution" />
        <cc:permits
           rdf:resource="http://web.resource.org/cc/DerivativeWorks" />
        <cc:requires
           rdf:resource="http://web.resource.org/cc/ShareAlike" />
      </cc:License>
    </rdf:RDF>
  </metadata>
  <rect
     id="rect4"
     fill="#f6f5f4"
     height="22"
     width="28"
     y="6"
     x="2" />
  <rect
     id="rect6"
     fill="#c0bfbc"
     ry="1"
     height="3"
     width="28"
     y="4"
     x="2" />
  <rect
     id="rect8"
     fill="#c0bfbc"
     height="1"
     width="28"
     y="6"
     x="2" />
  <rect
     id="rect10"
     fill="#9a9996"
     height="21"
     width="1"
     y="7"
     x="2" />
  <rect
     id="rect12"
     fill="#9a9996"
     height="1"
     width="28"
     y="27"
     x="2" />
  <rect
     id="rect14"
     fill="#9a9996"
     height="21"
     width="1"
     y="7"
     x="29" />
  <rect
     id="rect16"
     fill="#9a9996"
     height="1"
     width="28"
     y="7"
     x="2" />
  <rect
     id="rect18"
     fill="#3d3846"
     ry=".5"
     height="1"
     width="1"
     y="5"
     x="28" />
  <rect
     id="rect20"
     fill="#3d3846"
     ry=".5"
     height="1"
     width="1"
     y="5"
     x="26" />
  <rect
     id="rect22"
     fill="#3d3846"
     ry=".5"
     height="1"
     width="1"
     y="5"
     x="24" />
  <path
     id="path24"
     fill="#3d3846"
     d="m8 10c-0.554 0-1 0.446-1 1v10c0 0.554 0.446 1 1 1h16c0.554 0 1-0.446 1-1v-10c0-0.554-0.446-1-1-1zm0 1h16v10h-16z" />
  <path
     id="path26"
     fill="#3d3846"
     d="m11 23v1c0 0.554 0.446 1 1 1h8c0.554 0 1-0.446 1-1v-1z" />
  <path
     transform="translate(-2)"
     d="m 17.992188,15 a 1.0001,1.0001 0 0 0 -0.439454,0.105469 l -7.9999996,4 A 1.0001,1.0001 0 0 0 9.2929688,20.707031 L 10.585938,22 9.2929688,23.292969 a 1.0001,1.0001 0 0 0 0,1.414062 l 1.0000002,1 a 1.0001,1.0001 0 0 0 1.414062,0 L 13,24.414062 l 1.292969,1.292969 a 1.0001,1.0001 0 0 0 1.65625,-0.390625 l 3,-9 A 1.0001,1.0001 0 0 0 17.992188,15 Z"
     id="path843-7"
     style="fill:#f6f5f4;stroke:none;stroke-width:1px;stroke-linecap:butt;stroke-linejoin:miter;stroke-opacity:1" />
  <path
     id="path843"
     d="m 11,23 2,2 3,-9 -8,4 2,2 -2,2 1,1 z"
     style="fill:#3d3846;stroke:none;stroke-width:1px;stroke-linecap:butt;stroke-linejoin:miter;stroke-opacity:1" />
  <path
     id="path845"
     d="M 16,16 8.445312,24.445312 9,25 l 2,-2 2,2 z"
     style="fill:#241f31;stroke:none;stroke-width:1px;stroke-linecap:butt;stroke-linejoin:miter;stroke-opacity:1" />
</svg>
