<svg height="128" width="128" xmlns="http://www.w3.org/2000/svg"><g stroke-width="4"><path d="M32 96c-2.216 0-4 1.984-4 4.444v11.112c0 2.46 1.784 4.444 4 4.444h64c2.216 0 4-1.984 4-4.444V100.44c0-2.46-1.784-4.444-4-4.444z" fill="#5e5c64"/><path d="M32 92c-2.216 0-4 1.984-4 4.444v11.112c0 2.46 1.784 4.444 4 4.444h64c2.216 0 4-1.984 4-4.444V96.44c0-2.46-1.784-4.444-4-4.444z" fill="#9a9996"/><path d="M12 20c-2.216 0-4 1.828-4 4.104V95.9a4.04 4.04 0 0 0 4 4.1h104c2.216 0 4-1.828 4-4.1V24.1a4.04 4.04 0 0 0-4-4.1z" fill="#5e5c64"/><path d="M12 16c-2.216 0-4 1.784-4 4v72c0 2.216 1.784 4 4 4h104c2.216 0 4-1.784 4-4V20c0-2.216-1.784-4-4-4z" fill="#9a9996"/><path d="M12 20h104v72H12z" fill="#3d3846"/><path d="M16 24h96v64H16z" fill="#241f31"/><path d="M20 36h68v4H20zm0 8h52v4H20z" fill="#deddda"/><path d="M20 52h76v4H20z" fill="#f6d32d"/><path d="M44 28h44v4H44zM20 60h28v4H20zm0 8h64v4H20zm0 8h32v4H20z" fill="#fff"/><path d="M20 28h20v4H20z" fill="#e01b24"/><path d="M16 24h72L72 88H16z" fill="#fff" opacity=".2"/></g></svg>