<svg xmlns="http://www.w3.org/2000/svg" viewBox="0 0 32 32"><path fill="#f6f5f4" d="M2 6h28v22H2z"/><rect fill="#c0bfbc" ry="1" height="3" width="28" y="4" x="2"/><path fill="#c0bfbc" d="M2 6h28v1H2z"/><path fill="#9a9996" d="M2 7h1v21H2z"/><path fill="#9a9996" d="M2 27h28v1H2z"/><path fill="#9a9996" d="M29 7h1v21h-1z"/><path fill="#9a9996" d="M2 7h28v1H2z"/><rect fill="#3d3846" ry=".5" height="1" width="1" y="5" x="28"/><rect fill="#3d3846" ry=".5" height="1" width="1" y="5" x="26"/><rect fill="#3d3846" ry=".5" height="1" width="1" y="5" x="24"/><path fill="#3d3846" d="M8 10c-.554 0-1 .446-1 1v10c0 .554.446 1 1 1h16c.554 0 1-.446 1-1V11c0-.554-.446-1-1-1zm0 1h16v10H8zm3 12v1c0 .554.446 1 1 1h8c.554 0 1-.446 1-1v-1z"/><path d="M15.992 15a1 1 0 0 0-.44.105l-8 4a1 1 0 0 0-.259 1.602L8.586 22l-1.293 1.293a1 1 0 0 0 0 1.414l1 1a1 1 0 0 0 1.414 0L11 24.414l1.293 1.293a1 1 0 0 0 1.656-.39l3-9A1 1 0 0 0 15.992 15z" fill="#f6f5f4"/><path d="M11 23l2 2 3-9-8 4 2 2-2 2 1 1z" fill="#3d3846"/><path d="M16 16l-7.555 8.445L9 25l2-2 2 2z" fill="#241f31"/></svg>