<?xml version="1.0" encoding="UTF-8" standalone="no"?>
<svg
   xmlns:dc="http://purl.org/dc/elements/1.1/"
   xmlns:cc="http://creativecommons.org/ns#"
   xmlns:rdf="http://www.w3.org/1999/02/22-rdf-syntax-ns#"
   xmlns:svg="http://www.w3.org/2000/svg"
   xmlns="http://www.w3.org/2000/svg"
   id="svg28"
   viewBox="0 0 32 32"
   version="1.1">
  <defs
     id="defs32" />
  <metadata
     id="metadata2">
    <rdf:RDF>
      <cc:Work
         rdf:about="">
        <dc:format>image/svg+xml</dc:format>
        <dc:type
           rdf:resource="http://purl.org/dc/dcmitype/StillImage" />
        <dc:creator>
          <cc:Agent>
            <dc:title>Jakub Steiner</dc:title>
          </cc:Agent>
        </dc:creator>
        <dc:source>http://jimmac.musichall.cz</dc:source>
        <cc:license
           rdf:resource="http://creativecommons.org/licenses/by-sa/2.0/" />
        <dc:title></dc:title>
        <dc:subject>
          <rdf:Bag>
            <rdf:li>apparmor</rdf:li>
            <rdf:li>novell</rdf:li>
          </rdf:Bag>
        </dc:subject>
      </cc:Work>
      <cc:License
         rdf:about="http://creativecommons.org/licenses/by-sa/2.0/">
        <cc:permits
           rdf:resource="http://web.resource.org/cc/Reproduction" />
        <cc:permits
           rdf:resource="http://web.resource.org/cc/Distribution" />
        <cc:requires
           rdf:resource="http://web.resource.org/cc/Notice" />
        <cc:requires
           rdf:resource="http://web.resource.org/cc/Attribution" />
        <cc:permits
           rdf:resource="http://web.resource.org/cc/DerivativeWorks" />
        <cc:requires
           rdf:resource="http://web.resource.org/cc/ShareAlike" />
      </cc:License>
    </rdf:RDF>
  </metadata>
  <rect
     id="rect4"
     fill="#f6f5f4"
     height="22"
     width="28"
     y="6"
     x="2" />
  <rect
     id="rect6"
     fill="#c0bfbc"
     ry="1"
     height="3"
     width="28"
     y="4"
     x="2" />
  <rect
     id="rect8"
     fill="#c0bfbc"
     height="1"
     width="28"
     y="6"
     x="2" />
  <rect
     id="rect10"
     fill="#9a9996"
     height="21"
     width="1"
     y="7"
     x="2" />
  <rect
     id="rect12"
     fill="#9a9996"
     height="1"
     width="28"
     y="27"
     x="2" />
  <rect
     id="rect14"
     fill="#9a9996"
     height="21"
     width="1"
     y="7"
     x="29" />
  <rect
     id="rect16"
     fill="#9a9996"
     height="1"
     width="28"
     y="7"
     x="2" />
  <rect
     id="rect18"
     fill="#3d3846"
     ry=".5"
     height="1"
     width="1"
     y="5"
     x="28" />
  <rect
     id="rect20"
     fill="#3d3846"
     ry=".5"
     height="1"
     width="1"
     y="5"
     x="26" />
  <rect
     id="rect22"
     fill="#3d3846"
     ry=".5"
     height="1"
     width="1"
     y="5"
     x="24" />
  <path
     id="path24"
     fill="#3d3846"
     d="m8 10c-0.554 0-1 0.446-1 1v10c0 0.554 0.446 1 1 1h16c0.554 0 1-0.446 1-1v-10c0-0.554-0.446-1-1-1zm0 1h16v10h-16z" />
  <path
     id="path26"
     fill="#3d3846"
     d="m11 23v1c0 0.554 0.446 1 1 1h8c0.554 0 1-0.446 1-1v-1z" />
  <rect
     y="15"
     x="20"
     height="10"
     width="8"
     id="rect922"
     style="opacity:1;fill:#f6f5f4;fill-opacity:1;stroke:none;stroke-width:2;stroke-linecap:round;stroke-linejoin:round;stroke-miterlimit:4;stroke-dasharray:none;stroke-opacity:1" />
  <path
     id="path916"
     d="m 23,16 v 5"
     style="fill:none;stroke:#3d3846;stroke-width:2;stroke-linecap:butt;stroke-linejoin:round;stroke-miterlimit:4;stroke-dasharray:none;stroke-opacity:1" />
  <rect
     y="20"
     x="17"
     height="5"
     width="12"
     id="rect924"
     style="opacity:1;fill:#f6f5f4;fill-opacity:1;stroke:none;stroke-width:2;stroke-linecap:round;stroke-linejoin:round;stroke-miterlimit:4;stroke-dasharray:none;stroke-opacity:1" />
  <path
     id="path918"
     d="m 21,19 2,2 2,-2"
     style="fill:none;stroke:#3d3846;stroke-width:2;stroke-linecap:round;stroke-linejoin:miter;stroke-miterlimit:4;stroke-dasharray:none;stroke-opacity:1" />
  <path
     id="path920"
     d="m 19,22 v 2 h 8 v -2"
     style="fill:none;stroke:#3d3846;stroke-width:2;stroke-linecap:butt;stroke-linejoin:round;stroke-miterlimit:4;stroke-dasharray:none;stroke-opacity:1" />
</svg>
