<svg height="128" width="128" xmlns="http://www.w3.org/2000/svg"><radialGradient id="b" cx="64" cy="48" gradientUnits="userSpaceOnUse" r="40"><stop offset="0" stop-color="#999"/><stop offset=".6" stop-color="#c0bfbc"/><stop offset=".9" stop-color="#deddda"/><stop offset="1" stop-color="#c0bfbc"/></radialGradient><linearGradient id="a" gradientUnits="userSpaceOnUse" x1="24" x2="104" y1="60" y2="60"><stop offset="0" stop-color="#c0bfbc"/><stop offset=".05" stop-color="#deddda"/><stop offset=".2" stop-color="#c0bfbc"/><stop offset=".8" stop-color="#c0bfbc"/><stop offset=".95" stop-color="#deddda"/><stop offset="1" stop-color="#c0bfbc"/></linearGradient><linearGradient id="c" gradientUnits="userSpaceOnUse" x1="104" x2="104" y1="112" y2="56"><stop offset="0" stop-color="#e5a50a"/><stop offset="1" stop-color="#e5a50a" stop-opacity="0"/></linearGradient><g stroke-width="4"><path d="M24 48v8h16v-8zm64 0v8h16v-8z" fill="url(#a)"/><rect fill="#e5a50a" height="64" ry="4" width="96" x="16" y="56"/><path d="M64 8C41.84 8 24 25.84 24 48h16c0-13.296 10.704-24 24-24s24 10.704 24 24h16c0-22.16-17.84-40-40-40z" fill="url(#b)"/><rect fill="#f6d32d" height="56" ry="4" width="96" x="16" y="56"/><path d="M16 64v8h16v-8zm80 0v8h16v-8zM16 80v8h16v-8zm80 0v8h16v-8zM16 96v8h16v-8zm80 0v8h16v-8z" fill="url(#c)"/></g></svg>